<svg width="227" height="215" viewBox="0 0 227 215" fill="none" xmlns="http://www.w3.org/2000/svg">
<path d="M72.1625 105.984L99.532 74.5382L64.0087 33.1928H91.9606L112.924 55.9037L161.84 0H84.3914C8.68814 18.0522 32.564 96.6668 72.1625 105.984Z" fill="white"/>
<path d="M154.274 43.0898L128.07 75.118L163.009 117.628H134.475L112.929 92.5879L64.5957 147.909H148.451C217.166 128.11 189.214 47.1662 154.274 43.0898Z" fill="#FEB82A"/>
<path d="M196.869 214.281V177.531H204.185V192.694H219.036V177.531H226.335V214.281H219.036V199.1H204.185V214.281H196.869Z" fill="white"/>
<path d="M191.613 190.396H184.213C184.078 189.379 183.802 188.476 183.385 187.686C182.968 186.885 182.433 186.203 181.78 185.641C181.126 185.078 180.372 184.648 179.516 184.349C178.671 184.05 177.753 183.9 176.762 183.9C174.971 183.9 173.411 184.373 172.082 185.318C170.753 186.251 169.722 187.615 168.99 189.409C168.258 191.191 167.892 193.357 167.892 195.905C167.892 198.525 168.258 200.726 168.99 202.508C169.733 204.291 170.77 205.637 172.099 206.546C173.428 207.455 174.965 207.91 176.711 207.91C177.691 207.91 178.598 207.772 179.431 207.497C180.276 207.222 181.025 206.821 181.678 206.295C182.332 205.756 182.872 205.104 183.3 204.339C183.74 203.573 184.044 202.7 184.213 201.719L191.613 201.755C191.421 203.442 190.943 205.069 190.177 206.636C189.422 208.191 188.403 209.585 187.119 210.817C185.846 212.037 184.325 213.006 182.557 213.724C180.8 214.43 178.812 214.782 176.593 214.782C173.507 214.782 170.747 214.041 168.314 212.557C165.892 211.074 163.978 208.927 162.57 206.115C161.173 203.304 160.475 199.901 160.475 195.905C160.475 191.897 161.184 188.488 162.603 185.677C164.023 182.865 165.949 180.724 168.382 179.252C170.815 177.769 173.552 177.027 176.593 177.027C178.598 177.027 180.456 177.326 182.168 177.925C183.892 178.523 185.418 179.396 186.747 180.544C188.076 181.681 189.157 183.075 189.991 184.726C190.836 186.376 191.376 188.267 191.613 190.396Z" fill="white"/>
<path d="M135.555 177.531L142.533 190.056H142.803L149.815 177.531H158.077L147.517 195.906L158.313 214.281H149.899L142.803 201.738H142.533L135.437 214.281H127.057L137.887 195.906L127.259 177.531H135.555Z" fill="white"/>
<path d="M99.5645 214.281V177.531H122.88V183.937H106.88V192.694H121.681V199.1H106.88V207.875H122.948V214.281H99.5645Z" fill="#FEB82A"/>
<path d="M63.0664 177.531H71.2607L79.1509 193.358H79.4888L87.379 177.531H95.5733L82.9524 201.29V214.281H75.6873V201.29L63.0664 177.531Z" fill="white"/>
<path d="M32.293 214.281V177.531H39.6087V193.735H40.0649L52.5168 177.531H61.2856L48.445 193.986L61.4376 214.281H52.6858L43.2074 199.172L39.6087 203.838V214.281H32.293Z" fill="white"/>
<path d="M19.8859 188.099C19.7508 186.652 19.1707 185.527 18.1457 184.726C17.1207 183.924 15.7297 183.523 13.9725 183.523C12.7786 183.523 11.7705 183.703 10.9483 184.062C10.126 184.408 9.49524 184.893 9.05596 185.515C8.62794 186.137 8.41394 186.843 8.41394 187.633C8.39141 188.29 8.52094 188.865 8.80253 189.355C9.09539 189.846 9.49525 190.27 10.0021 190.629C10.509 190.976 11.0947 191.281 11.7592 191.544C12.4238 191.796 13.1334 192.011 13.8881 192.19L16.9968 192.98C18.5062 193.339 19.8916 193.817 21.1531 194.416C22.4146 195.014 23.5072 195.749 24.4308 196.623C25.3544 197.496 26.0697 198.525 26.5765 199.709C27.0947 200.893 27.3594 202.251 27.3706 203.783C27.3594 206.032 26.8187 207.982 25.7487 209.632C24.6899 211.271 23.158 212.545 21.1531 213.455C19.1594 214.352 16.7547 214.8 13.9388 214.8C11.1454 214.8 8.71242 214.346 6.63991 213.437C4.57867 212.527 2.96797 211.182 1.80781 209.399C0.658923 207.605 0.0563182 205.386 0 202.742H7.07919C7.15804 203.974 7.49032 205.003 8.07603 205.828C8.673 206.642 9.46709 207.258 10.4583 207.676C11.4607 208.083 12.5927 208.287 13.8543 208.287C15.0933 208.287 16.1689 208.095 17.0813 207.712C18.0049 207.33 18.7202 206.797 19.227 206.115C19.7339 205.433 19.9873 204.65 19.9873 203.765C19.9873 202.939 19.7564 202.245 19.2946 201.683C18.8441 201.121 18.1795 200.642 17.3009 200.247C16.4336 199.853 15.3692 199.494 14.1077 199.171L10.34 198.166C7.42274 197.412 5.11932 196.234 3.42978 194.631C1.74023 193.028 0.901091 190.868 0.912355 188.153C0.901091 185.928 1.45864 183.984 2.585 182.321C3.72263 180.658 5.28265 179.36 7.26504 178.427C9.24744 177.494 11.5002 177.027 14.0232 177.027C16.5913 177.027 18.8328 177.494 20.7476 178.427C22.6737 179.36 24.1718 180.658 25.2418 182.321C26.3119 183.984 26.8638 185.91 26.8976 188.099H19.8859Z" fill="white"/>
</svg>
