<?xml version="1.0" encoding="utf-8"?>
<svg xmlns="http://www.w3.org/2000/svg" fill="none" height="53" viewBox="0 0 158 53" width="158">
<path clip-rule="evenodd" d="M34.5573 29.808V34.3147C34.5573 35.1004 34.4071 35.8285 34.1067 36.4987C33.7831 37.192 33.3671 37.7929 32.8587 38.3013C32.3502 38.8098 31.7609 39.2142 31.0907 39.5147C30.3973 39.8382 29.6578 40 28.872 40H4.18933V33.1707C4.18933 32.9627 4.32799 32.824 4.53599 32.824H11.9547C12.1627 32.824 12.336 32.9627 12.336 33.1707V34.7307H24.816C25.2551 34.7307 25.6133 34.5804 25.8907 34.28C26.1911 34.0027 26.3413 33.6329 26.3413 33.1707V30.952C26.3413 30.4898 26.1911 30.1084 25.8907 29.808C25.6133 29.5075 25.2551 29.3574 24.816 29.3574H12.336V30.8826C12.336 31.0906 12.1627 31.264 11.9547 31.264H4.53599C4.32799 31.264 4.18933 31.0906 4.18933 30.8826V16.4613L1 14H27.5893C28.3751 14 29.1147 14.1502 29.808 14.4507C30.4782 14.7511 31.0675 15.1556 31.576 15.664C32.1075 16.1725 32.5235 16.7618 32.824 17.432C33.1244 18.1253 33.2747 18.8649 33.2747 19.6507V23.672C33.2747 24.3653 33.136 25.0702 32.8587 25.7867C33.9911 26.896 34.5573 28.2364 34.5573 29.808ZM24.3307 20.76C24.3307 20.3209 24.1804 19.9511 23.88 19.6507C23.5796 19.3734 23.1982 19.2347 22.736 19.2347H11.3307L13.1333 20.448V24.1226H22.736C23.1982 24.1226 23.5796 23.9725 23.88 23.672C24.1804 23.3716 24.3307 23.0018 24.3307 22.5626V20.76Z" fill="white" fill-rule="evenodd"/>
<path d="M62.4985 14H34.3491L37.5038 16.4613V40H62.4985V34.7307H46.4825V30.0853H57.9571V24.8507H46.4825V20.448L44.2638 19.2347H62.4985V14Z" fill="white"/>
<path d="M94.496 14H65.7227V19.2347H75.2213V40H84.1653V21.0026L81.8773 19.2347H94.496V14Z" fill="white"/>
<path d="M119.768 21.176L125.072 14H97.9624V19.2347H110.477L105.277 26.3413H114.082C114.522 26.3413 114.903 26.4916 115.226 26.792C115.527 27.0925 115.677 27.4507 115.677 27.8667V33.136C115.677 33.5751 115.527 33.9449 115.226 34.2453C114.903 34.5227 114.522 34.6613 114.082 34.6613H108.605C108.166 34.6613 107.796 34.5227 107.496 34.2453C107.195 33.9449 107.034 33.5751 107.01 33.136V29.4613H98.0664V34.2453C98.0664 35.0311 98.2282 35.7707 98.5517 36.464C98.8522 37.1342 99.2566 37.7236 99.7651 38.232C100.273 38.7636 100.874 39.1796 101.568 39.48C102.238 39.7804 102.966 39.9307 103.752 39.9307H118.936C119.722 39.9307 120.461 39.7804 121.154 39.48C121.825 39.1796 122.414 38.7636 122.922 38.232C123.454 37.7236 123.87 37.1342 124.17 36.464C124.471 35.7707 124.621 35.0311 124.621 34.2453V26.792C124.621 25.3591 124.159 24.1111 123.234 23.048C122.31 22.008 121.154 21.384 119.768 21.176Z" fill="#EFE231"/>
<path clip-rule="evenodd" d="M157.208 29.7733V34.2453C157.208 35.0311 157.058 35.7707 156.757 36.464C156.434 37.1342 156.018 37.7236 155.509 38.232C155.001 38.7636 154.411 39.1796 153.741 39.48C153.048 39.7804 152.308 39.9307 151.523 39.9307H133.773C132.987 39.9307 132.259 39.7804 131.589 39.48C130.896 39.1796 130.295 38.7636 129.787 38.232C129.278 37.7236 128.874 37.1342 128.573 36.464C128.25 35.7707 128.088 35.0311 128.088 34.2453V19.6507C128.088 18.8649 128.25 18.1253 128.573 17.432C128.874 16.7618 129.278 16.1725 129.787 15.664C130.295 15.1556 130.896 14.7511 131.589 14.4507C132.259 14.1502 132.987 14 133.773 14H150.621C151.407 14 152.135 14.1502 152.805 14.4507C153.475 14.7511 154.076 15.1556 154.608 15.664C155.116 16.1725 155.521 16.7618 155.821 17.432C156.122 18.1253 156.272 18.8649 156.272 19.6507V21.904H147.293V20.76C147.293 20.3209 147.143 19.9511 146.843 19.6507C146.565 19.3733 146.207 19.2347 145.768 19.2347H138.627C138.187 19.2347 137.818 19.3733 137.517 19.6507C137.194 19.9511 137.032 20.3209 137.032 20.76V24.088H151.523C152.308 24.088 153.048 24.2382 153.741 24.5387C154.411 24.8391 155.001 25.2551 155.509 25.7867C156.018 26.2951 156.434 26.8844 156.757 27.5547C157.058 28.248 157.208 28.9876 157.208 29.7733ZM148.264 30.8826C148.264 30.4435 148.114 30.0738 147.813 29.7733C147.49 29.4498 147.108 29.288 146.669 29.288H137.032V33.136C137.032 33.5751 137.194 33.9449 137.517 34.2453C137.818 34.5227 138.187 34.6613 138.627 34.6613H146.669C147.108 34.6613 147.49 34.5227 147.813 34.2453C148.114 33.9449 148.264 33.5751 148.264 33.136V30.8826Z" fill="#EFE231" fill-rule="evenodd"/>
</svg>