<svg width="12" height="12" viewBox="0 0 12 12" fill="none" xmlns="http://www.w3.org/2000/svg">
<g clip-path="url(#clip0_2059_14)">
<path fill-rule="evenodd" clip-rule="evenodd" d="M6.00009 8.106C6.38509 8.106 6.74509 8.01 7.08109 7.817C7.41709 7.625 7.68309 7.367 7.88109 7.046C8.07537 6.73041 8.17823 6.36709 8.17823 5.9965C8.17823 5.62591 8.07537 5.26259 7.88109 4.947C7.68622 4.62257 7.41059 4.35418 7.08109 4.168C6.75269 3.9778 6.37959 3.8784 6.00009 3.88C5.61509 3.88 5.25709 3.976 4.92609 4.168C4.59609 4.361 4.33209 4.62 4.13409 4.948C3.94002 5.26348 3.83726 5.62661 3.83726 5.997C3.83726 6.36739 3.94002 6.73052 4.13409 7.046C4.33209 7.368 4.59609 7.625 4.92609 7.817C5.25709 8.01 5.61509 8.106 6.00009 8.106ZM10.6051 6.591L11.8931 7.572C11.9531 7.62 11.9871 7.682 11.9971 7.76C12.0074 7.83491 11.9919 7.91108 11.9531 7.976L10.7091 10.053C10.6761 10.1151 10.6201 10.1617 10.5531 10.183C10.482 10.2015 10.4069 10.1962 10.3391 10.168L8.81309 9.577C8.41909 9.856 8.06809 10.053 7.76309 10.168L7.54009 11.74C7.5232 11.8125 7.48446 11.8782 7.42909 11.928C7.3787 11.9745 7.31263 12.0002 7.24409 12H4.75609C4.68567 11.9982 4.61831 11.9708 4.56659 11.923C4.51488 11.8751 4.48236 11.8101 4.47509 11.74L4.23809 10.168C3.86275 10.0277 3.51231 9.82816 3.20009 9.577L1.66009 10.168C1.50209 10.236 1.38009 10.198 1.29009 10.053L0.0470932 7.976C0.00832983 7.91108 -0.00718748 7.83491 0.00309317 7.76C0.0070891 7.72333 0.0183425 7.68782 0.0361976 7.65555C0.0540528 7.62327 0.0781527 7.59487 0.107093 7.572L1.41009 6.592C1.38678 6.39557 1.37676 6.19778 1.38009 6C1.38009 5.74 1.39009 5.543 1.41009 5.409L0.107093 4.428C0.0781527 4.40513 0.0540528 4.37673 0.0361976 4.34445C0.0183425 4.31218 0.0070891 4.27667 0.00309317 4.24C-0.00718748 4.16509 0.00832983 4.08892 0.0470932 4.024L1.29109 1.947C1.38109 1.803 1.50309 1.764 1.66109 1.832L3.20109 2.423C3.55709 2.163 3.90209 1.966 4.23809 1.832L4.47509 0.26C4.48236 0.189925 4.51488 0.12489 4.56659 0.0770437C4.61831 0.0291971 4.68567 0.00181084 4.75609 0L7.24409 0C7.31309 0 7.37409 0.024 7.42909 0.072C7.48309 0.12 7.52009 0.182 7.54009 0.26L7.76209 1.832C8.14115 1.97288 8.49579 2.1723 8.81309 2.423L10.3391 1.832C10.4069 1.80375 10.482 1.79848 10.5531 1.817C10.6171 1.837 10.6691 1.88 10.7091 1.947L11.9531 4.024C11.9931 4.091 12.0071 4.164 11.9971 4.24C11.9931 4.27667 11.9818 4.31218 11.964 4.34445C11.9461 4.37673 11.922 4.40513 11.8931 4.428L10.6051 5.408C10.6251 5.543 10.6351 5.74 10.6351 6C10.6351 6.26 10.6251 6.457 10.6051 6.591Z" fill="white"/>
</g>
<defs>
<clipPath id="clip0_2059_14">
<rect width="12" height="12" fill="white"/>
</clipPath>
</defs>
</svg>
