<svg width="13" height="13" viewBox="0 0 13 13" fill="none" xmlns="http://www.w3.org/2000/svg">
<g clip-path="url(#clip0_427_16)">
<mask id="mask0_427_16" style="mask-type:luminance" maskUnits="userSpaceOnUse" x="0" y="0" width="13" height="13">
<path d="M13 0H0V13H13V0Z" fill="white"/>
</mask>
<g mask="url(#mask0_427_16)">
<path fill-rule="evenodd" clip-rule="evenodd" d="M6.5 8.135C7.868 8.135 9.294 8.432 10.776 9.028C12.26 9.623 13 10.403 13 11.365V13H0V11.365C0 10.403 0.741 9.623 2.224 9.028C3.706 8.432 5.132 8.135 6.5 8.135ZM6.5 6.5C5.613 6.5 4.853 6.183 4.22 5.55C3.586 4.916 3.269 4.156 3.269 3.269C3.269 2.382 3.586 1.616 4.219 0.969C4.853 0.323 5.613 0 6.5 0C7.387 0 8.147 0.323 8.78 0.97C9.414 1.616 9.731 2.382 9.731 3.269C9.731 4.156 9.414 4.916 8.781 5.549C8.147 6.183 7.387 6.5 6.5 6.5Z" fill="#FFB80C"/>
</g>
</g>
<defs>
<clipPath id="clip0_427_16">
<rect width="13" height="13" fill="white"/>
</clipPath>
</defs>
</svg>
