<svg width="220" height="40" viewBox="0 0 220 40" fill="none" xmlns="http://www.w3.org/2000/svg">
<path d="M59.1277 22.4796C59.1277 15.9415 63.1654 15.8206 68.6175 15.8206H69.2383C74.5504 15.8206 77.4631 16.7442 77.4631 23.0744V27.4799C77.4631 32.78 76.1421 35.0384 69.0516 35.0384H67.6979C60.9715 35.0384 59.1324 33.1234 59.1324 27.8426C59.1277 27.8474 59.1277 22.4796 59.1277 22.4796ZM59.1277 36.5375H59.2398C60.9109 38.82 63.987 40 67.7633 40H69.7191C77.6265 40 83.41 37.9157 83.4053 28.4761V22.7117C83.4053 13.9733 79.6804 10.8686 69.9665 10.8686H66.9464C62.7033 10.8686 60.3367 12.3581 59.2304 13.9733H59.1277V0.00242651H53.1855V39.1102H59.1324L59.1277 36.5375Z" fill="white" fill-opacity="0.7"/>
<path d="M154.497 11.563H146.72V9.03803C146.72 6.62918 148.203 4.69436 151.368 4.69436L157.143 4.70404V0.00242445L149.463 0.00725995C144.82 0.00725995 140.922 2.58057 140.922 9.07189V11.5678H137.803V16.5113H140.922V40H146.72V16.5113H154.497V11.563Z" fill="white" fill-opacity="0.7"/>
<path d="M120.444 30.9316C120.444 37.427 124.447 40 129.211 40H136.593V35.0475H130.662C127.419 35.0475 126.393 33.3644 126.393 30.9558V16.5093H134.381V11.5567H126.393V0.00242697H120.453V11.5616H117.252V16.5093H120.453L120.444 30.9316Z" fill="white" fill-opacity="0.7"/>
<path d="M187.368 6.45312H193.407V0.00190348L187.363 0.00688791L187.368 6.45312Z" fill="white" fill-opacity="0.7"/>
<path d="M187.363 40H193.407V10.3244H187.363V40Z" fill="white" fill-opacity="0.7"/>
<path d="M92.4386 21.6399C92.4386 15.9403 94.8267 15.3688 100.649 15.3688H101.787C108.34 15.3688 109.186 17.2063 109.186 20.9503L109.191 22.5414L92.4341 22.5513L92.4386 21.6399ZM98.5927 40H103.67C110.507 40 113.63 37.5861 114.428 33.3693L109.403 31.6796C108.57 34.2757 106.559 34.9555 102.133 34.9555H100.83C93.6038 34.9555 92.4297 33.9358 92.4253 27.6007L92.4386 27.5957H114.835V22.1079C114.835 12.1717 110.197 10.3244 102.78 10.3244H100.019C94.1488 10.3244 87.0332 11.4673 87.0332 21.5759V28.581C87.0376 38.399 93.2051 40.0049 98.5927 40Z" fill="white" fill-opacity="0.7"/>
<path d="M176.604 31.1343C176.604 33.922 174.797 34.9564 167.774 34.9564H166.19C160.22 34.9564 159.465 33.7398 159.465 31.3313V29.7699C159.465 26.9821 160.951 25.9281 165.897 25.9281H168.538C173.041 25.9281 176.609 26.8639 176.609 29.9866V31.1343H176.604ZM169.227 10.3244H167.01C158.962 10.3244 155.474 12.9447 155.245 16.8653L160.9 18.8503C161.16 16.1708 164.071 15.3779 168.477 15.3779C175.035 15.3779 176.586 15.7768 176.586 20.7909V23.5146H176.469C174.988 21.4263 172.962 20.8845 167.825 20.8845H165.506C157.933 20.8845 153.518 22.8793 153.518 29.2183V31.0308C153.527 36.2665 155.408 40 163.321 40H169.083C174.807 40 175.379 39.0051 176.511 37.2713H176.6V39.9852H182.529V20.9091C182.533 12.6098 177.317 10.3244 169.227 10.3244Z" fill="white" fill-opacity="0.7"/>
<path d="M211.233 10.3244C208.562 10.3244 205.839 11.3784 204.15 14.2647H203.933V10.3244L198.242 10.3293V40H204.254V22.1454C204.254 18.54 206.236 15.3729 210.907 15.3729C214.244 15.3729 215.853 16.3186 216.211 17.3135L220 14.6489C219.061 11.9498 216.551 10.3244 211.233 10.3244Z" fill="white" fill-opacity="0.7"/>
<path d="M42.6473 0.00252636H27.4603V7.95191H19.3418L35.0538 27.0977L50.7704 7.95191H42.6473V0.00252636Z" fill="white" fill-opacity="0.7"/>
<path d="M0 32.0444H8.12189V40H23.3067V32.0396H31.4286L15.7235 12.9049L0 32.0444Z" fill="white" fill-opacity="0.7"/>
</svg>
