<svg width="107" height="18" viewBox="0 0 107 18" fill="none" xmlns="http://www.w3.org/2000/svg">
<path d="M28.7572 10.1154C28.7572 7.17316 30.721 7.11875 33.3727 7.11875H33.6747C36.2582 7.11875 37.6749 7.53441 37.6749 10.3831V12.3657C37.6749 14.7509 37.0324 15.7672 33.5839 15.7672H32.9255C29.654 15.7672 28.7595 14.9054 28.7595 12.5289C28.7572 12.5311 28.7572 10.1154 28.7572 10.1154ZM28.7572 16.4418H28.8117C29.6245 17.469 31.1206 18 32.9573 18H33.9085C37.7544 18 40.5672 17.062 40.565 12.814V10.2199C40.565 6.28742 38.7533 4.89027 34.0288 4.89027H32.56C30.4963 4.89027 29.3453 5.56055 28.8072 6.28742H28.7572V0.000234855H25.8672V17.5996H28.7595L28.7572 16.4418Z" fill="#494949"/>
<path d="M75.1408 5.20273H71.3587V4.06645C71.3587 2.98242 72.0798 2.11171 73.6191 2.11171L76.4281 2.11606V0.000234357L72.6924 0.00241044C70.4342 0.00241044 68.5387 1.16046 68.5387 4.08169V5.20491H67.0215V7.42957H68.5387V18H71.3587V7.42957H75.1408V5.20273Z" fill="#494949"/>
<path d="M58.5796 13.919C58.5796 16.8421 60.5267 18 62.8438 18H66.4339V15.7712H63.5495C61.9723 15.7712 61.4731 15.0138 61.4731 13.9299V7.42867H65.3582V5.19992H61.4731V0.000234726H58.5841V5.2021H57.0273V7.42867H58.5841L58.5796 13.919Z" fill="#494949"/>
<path d="M91.1293 2.90234H94.0665V-0.000843937L91.127 0.00139916L91.1293 2.90234Z" fill="#494949"/>
<path d="M91.127 18H94.0665V4.64534H91.127V18Z" fill="#494949"/>
<path d="M44.959 9.73758C44.959 7.17262 46.1205 6.91545 48.9521 6.91545H49.5059C52.693 6.91545 53.1045 7.74236 53.1045 9.42721L53.1067 10.1433L44.9569 10.1477L44.959 9.73758ZM47.9522 18H50.4217C53.7467 18 55.2659 16.9137 55.6538 15.016L53.2101 14.2556C52.805 15.4239 51.8267 15.7299 49.674 15.7299H49.0404C45.5258 15.7299 44.9547 15.271 44.9526 12.42L44.959 12.4178H55.852V9.94818C55.852 5.47668 53.5959 4.64534 49.9886 4.64534H48.6461C45.7908 4.64534 42.3301 5.15966 42.3301 9.70876V12.8612C42.3322 17.2795 45.3318 18.0022 47.9522 18Z" fill="#494949"/>
<path d="M85.8946 14.0102C85.8946 15.2648 85.0157 15.7303 81.5998 15.7303H80.8296C77.9256 15.7303 77.5587 15.1828 77.5587 14.0989V13.3962C77.5587 12.1417 78.2813 11.6673 80.6869 11.6673H81.9712C84.1617 11.6673 85.8968 12.0885 85.8968 13.4938V14.0102H85.8946ZM82.3065 4.64534H81.2283C77.314 4.64534 75.6174 5.82454 75.5064 7.58891L78.2563 8.48217C78.3832 7.27637 79.7989 6.91951 81.9418 6.91951C85.1312 6.91951 85.8855 7.09905 85.8855 9.35549V10.5812H85.8289C85.1085 9.64142 84.1232 9.3976 81.6247 9.3976H80.4966C76.8134 9.3976 74.666 10.2953 74.666 13.148V13.9637C74.6705 16.3199 75.5857 18 79.4342 18H82.2363C85.0202 18 85.2988 17.5523 85.8492 16.772H85.8923V17.9933H88.7759V9.40869C88.7781 5.67381 86.2411 4.64534 82.3065 4.64534Z" fill="#494949"/>
<path d="M102.736 4.64534C101.437 4.64534 100.113 5.11968 99.2913 6.41857H99.1858V4.64534L96.418 4.64755V18H99.3418V9.96504C99.3418 8.34253 100.306 6.91729 102.578 6.91729C104.2 6.91729 104.983 7.34287 105.157 7.79061L107 6.59146C106.544 5.3768 105.323 4.64534 102.736 4.64534Z" fill="#494949"/>
<path d="M20.7412 0.00192385H13.3548V3.57931H9.40625L17.048 12.1953L24.6919 3.57931H20.7412V0.00192385Z" fill="#494949"/>
<path d="M0 14.4198H3.95018V18H11.3355V14.4176H15.2857L7.64732 5.80661L0 14.4198Z" fill="#494949"/>
</svg>
